<?xml version="1.0" encoding="iso-8859-1"?>
<!-- Generator: Adobe Illustrator 19.0.0, SVG Export Plug-In . SVG Version: 6.00 Build 0)  -->
<svg version="1.1" id="Capa_1" xmlns="http://www.w3.org/2000/svg" xmlns:xlink="http://www.w3.org/1999/xlink" x="0px" y="0px"
	 viewBox="0 0 512 512" style="enable-background:new 0 0 512 512;" xml:space="preserve">
<circle style="fill:#0CC27C;" cx="256" cy="256" r="256"/>
<path style="fill:#0DA366;" d="M511.308,274.844L306.42,69.956l-86.1,68.692l39.036,39.036L123.727,394.23l117.324,117.324
	c4.948,0.285,9.93,0.446,14.949,0.446C391.046,512,501.66,407.429,511.308,274.844z"/>
<path style="fill:#303F9E;" d="M276.118,151.068c19.81-10.314,33.801-35.384,33.801-64.695c0-38.511-24.14-5.935-53.919-5.935
	s-53.919-32.577-53.919,5.935c0,29.335,14.013,54.422,33.85,64.72c-77.728,10.015-138.82,77.208-138.819,157.591
	c0,24.418,5.511,47.548,15.355,68.216c13.244,27.806,41.481,45.356,72.28,45.356h142.501c31.114,0,59.433-17.98,72.657-46.144
	c9.611-20.468,14.983-43.32,14.983-67.429C414.888,227.747,354.37,160.957,276.118,151.068z"/>
<path style="fill:#1A237E;" d="M276.118,151.068c19.81-10.314,33.801-35.384,33.801-64.695c0-38.511-24.14-5.935-53.919-5.935
	c-0.016,0-0.032-0.001-0.048-0.001v341.818h71.296c31.114,0,59.433-17.98,72.657-46.144c9.611-20.468,14.983-43.32,14.983-67.429
	C414.888,227.747,354.37,160.957,276.118,151.068z"/>
<path style="fill:#FEF5E0;" d="M298.099,268.45v-5.642c0-15.21-12.374-27.584-27.584-27.584H266v-16.159h-20v16.159h-4.515
	c-15.21,0-27.584,12.374-27.584,27.584v16.242c0,15.21,12.374,27.584,27.584,27.584h29.029c4.182,0,7.584,3.402,7.584,7.584v16.639
	c0,4.182-3.402,7.584-7.584,7.584h-29.029c-4.182,0-7.584-3.402-7.584-7.584v-3.691h-20v3.691c0,15.21,12.374,27.584,27.584,27.584
	H246V374.6h20v-16.159h4.515c15.21,0,27.584-12.374,27.584-27.584v-16.639c0-15.21-12.374-27.584-27.584-27.584h-29.029
	c-4.182,0-7.584-3.402-7.584-7.584v-16.242c0-4.182,3.402-7.584,7.584-7.584h29.029c4.182,0,7.584,3.402,7.584,7.584v5.642H298.099z
	"/>
<g>
	<path style="fill:#E0E0E0;" d="M270.515,306.635c4.182,0,7.584,3.402,7.584,7.584v16.639c0,4.182-3.402,7.584-7.584,7.584h-14.562
		v36.159H266v-16.159h4.515c15.21,0,27.584-12.374,27.584-27.584v-16.639c0-15.21-12.374-27.584-27.584-27.584h-14.562v20H270.515z"
		/>
	<path style="fill:#E0E0E0;" d="M298.099,268.45v-5.642c0-15.21-12.374-27.584-27.584-27.584H266v-16.159h-10.048v36.159h14.562
		c4.182,0,7.584,3.402,7.584,7.584v5.642H298.099z"/>
</g>
<g>
</g>
<g>
</g>
<g>
</g>
<g>
</g>
<g>
</g>
<g>
</g>
<g>
</g>
<g>
</g>
<g>
</g>
<g>
</g>
<g>
</g>
<g>
</g>
<g>
</g>
<g>
</g>
<g>
</g>
</svg>
