<?xml version="1.0" encoding="iso-8859-1"?>
<!-- Generator: Adobe Illustrator 19.0.0, SVG Export Plug-In . SVG Version: 6.00 Build 0)  -->
<svg version="1.1" id="Layer_1" xmlns="http://www.w3.org/2000/svg" xmlns:xlink="http://www.w3.org/1999/xlink" x="0px" y="0px"
	 viewBox="0 0 512 512" style="enable-background:new 0 0 512 512;" xml:space="preserve">
<circle style="fill:#E05B49;" cx="256" cy="256" r="256"/>
<path style="opacity:0.1;enable-background:new    ;" d="M502.958,323.439L372.586,193.067c-7.627-7.626-17.28-11.894-27.253-12.853
	l-57.867-57.867c-17.386-17.386-45.547-17.386-62.933,0s-17.386,45.547,0,62.933l114.4,114.4L320.959,312l-12.106-12.053
	l-1.226-1.226l-0.159-0.16c-1.706-1.547-3.733-2.72-6.027-3.414l-70.988-21.92c-4.746-1.44-9.867-1.333-14.506,0.374l-27.414,10.026
	l-11.414-11.412h-67.786v130.452l106.101,106.101C228.651,510.873,242.192,512,256,512C374.035,512,473.353,432.091,502.958,323.439
	z"/>
<circle style="fill:#FCD462;" cx="256" cy="153.823" r="44.485"/>
<circle style="fill:#F6C358;" cx="256" cy="153.823" r="37.061"/>
<path style="fill:#DC8744;" d="M254.471,182.661v-5.08c-6.359-0.648-12.068-3.177-17.12-7.582l5.08-6.054
	c3.896,3.386,7.905,5.402,12.04,6.054v-13.501c-5.244-1.251-9.083-2.899-11.519-4.941c-2.435-2.042-3.653-5.069-3.653-9.08
	c0-4.013,1.399-7.294,4.207-9.848c2.809-2.551,6.461-3.942,10.964-4.174v-3.48h4.451v3.548c5.102,0.374,9.927,2.113,14.475,5.221
	l-4.525,6.402c-3.064-2.18-6.377-3.525-9.95-4.038v13.081h0.209c5.334,1.254,9.253,2.948,11.756,5.08
	c2.508,2.135,3.76,5.232,3.76,9.291c0,4.06-1.439,7.368-4.316,9.916c-2.877,2.554-6.677,3.945-11.411,4.176v5.009H254.471z
	 M249.561,137.746c-1.183,1.042-1.773,2.342-1.773,3.896s0.465,2.783,1.393,3.686c0.923,0.906,2.69,1.775,5.29,2.61v-12.04
	C252.381,136.086,250.745,136.701,249.561,137.746z M264.211,168.258c1.297-1.065,1.948-2.409,1.948-4.035
	c0-1.623-0.509-2.91-1.529-3.862c-1.025-0.951-2.928-1.844-5.708-2.678v12.524C261.148,169.977,262.909,169.325,264.211,168.258z"/>
<circle style="fill:#2D93BA;" cx="341.125" cy="224.531" r="44.485"/>
<circle style="fill:#27A2DB;" cx="341.125" cy="224.531" r="37.061"/>
<path style="fill:#2D93BA;" d="M339.597,253.354v-5.08c-6.359-0.648-12.068-3.177-17.12-7.582l5.08-6.054
	c3.896,3.386,7.905,5.402,12.04,6.054v-13.501c-5.244-1.251-9.083-2.899-11.519-4.941c-2.435-2.042-3.653-5.069-3.653-9.08
	c0-4.013,1.399-7.294,4.207-9.848c2.809-2.551,6.461-3.942,10.964-4.174v-3.48h4.451v3.548c5.102,0.374,9.927,2.113,14.475,5.221
	l-4.525,6.402c-3.064-2.18-6.377-3.525-9.95-4.038v13.081h0.209c5.334,1.254,9.253,2.948,11.756,5.08
	c2.508,2.135,3.76,5.232,3.76,9.291c0,4.06-1.439,7.368-4.316,9.916c-2.877,2.554-6.677,3.945-11.411,4.176v5.009H339.597z
	 M334.686,208.438c-1.183,1.042-1.773,2.342-1.773,3.896s0.465,2.783,1.393,3.686c0.923,0.906,2.69,1.775,5.29,2.61v-12.04
	C337.507,206.778,335.87,207.393,334.686,208.438z M349.336,238.95c1.297-1.065,1.948-2.409,1.948-4.035
	c0-1.623-0.509-2.91-1.529-3.863c-1.025-0.951-2.928-1.844-5.708-2.678v12.524C346.273,240.669,348.034,240.018,349.336,238.95z"/>
<path style="fill:#F6C358;" d="M236.226,309.715c18.284,16.379,44.975,18.629,60.65,18.322c7.518-0.147,13.964-5.32,15.85-12.598
	l0,0c2.254-8.697-2.728-17.628-11.311-20.279l-70.982-21.921c-4.74-1.464-9.829-1.331-14.486,0.376l-44.083,16.164v89.425H274.41
	c5.186,0,10.258-1.524,14.584-4.383l105.617-69.799c9.607-6.349,10.835-19.975,2.517-27.94l0,0
	c-6.138-5.876-15.554-6.644-22.563-1.84l-62.929,43.141"/>
<defs>
	<filter id="Adobe_OpacityMaskFilter" filterUnits="userSpaceOnUse" x="232.327" y="308.081" width="81.737" height="23.728">
		<feColorMatrix  type="matrix" values="1 0 0 0 0  0 1 0 0 0  0 0 1 0 0  0 0 0 1 0"/>
	</filter>
</defs>
<mask maskUnits="userSpaceOnUse" x="232.327" y="308.081" width="81.737" height="23.728" id="SVGID_1_">
</mask>
<g style="mask:url(#SVGID_1_);">
	<path style="fill:#FFFFFF;stroke:#DC8744;stroke-miterlimit:10;" d="M292.782,331.309c-15.499,0-41.632-2.726-59.749-18.959
		l3.199-3.564c17.94,16.055,44.653,17.968,59.001,17.71c6.379-0.126,11.963-4.569,13.581-10.807l4.64,1.206
		c-2.16,8.301-9.616,14.222-18.127,14.391C294.513,331.3,293.671,331.309,292.782,331.309z"/>
</g>
<path style="fill:#F6C358;" d="M236.226,309.715c18.284,16.379,44.975,18.629,60.65,18.322c7.518-0.147,13.964-5.32,15.85-12.598
	l0,0c2.254-8.697-2.728-17.628-11.311-20.279l-70.982-21.921c-4.74-1.464-9.829-1.331-14.486,0.376l-44.083,16.164"/>
<rect x="109.333" y="272.208" style="fill:#44C4A1;" width="67.771" height="130.438"/>
<circle style="fill:#EBF0F3;" cx="143.219" cy="378.031" r="11.696"/>
<g>
</g>
<g>
</g>
<g>
</g>
<g>
</g>
<g>
</g>
<g>
</g>
<g>
</g>
<g>
</g>
<g>
</g>
<g>
</g>
<g>
</g>
<g>
</g>
<g>
</g>
<g>
</g>
<g>
</g>
</svg>
